<mxfile host="app.diagrams.net" modified="2023-08-25T16:42:28.282Z" agent="Mozilla/5.0 (X11; Linux x86_64; rv:103.0) Gecko/20100101 Firefox/103.0" etag="s-CAfR1JFN0aWwHBXeNo" version="21.6.9" type="github">
  <diagram id="R2lEEEUBdFMjLlhIrx00" name="Page-1">
    <mxGraphModel dx="1434" dy="718" grid="1" gridSize="10" guides="1" tooltips="1" connect="1" arrows="1" fold="1" page="1" pageScale="1" pageWidth="850" pageHeight="1100" math="0" shadow="0" extFonts="Permanent Marker^https://fonts.googleapis.com/css?family=Permanent+Marker">
      <root>
        <mxCell id="0" />
        <mxCell id="1" parent="0" />
        <mxCell id="C9hAEGVwSMoUTRmDxHIF-8" value="" style="edgeStyle=orthogonalEdgeStyle;rounded=0;orthogonalLoop=1;jettySize=auto;html=1;" edge="1" parent="1" source="C9hAEGVwSMoUTRmDxHIF-1" target="C9hAEGVwSMoUTRmDxHIF-3">
          <mxGeometry relative="1" as="geometry" />
        </mxCell>
        <mxCell id="C9hAEGVwSMoUTRmDxHIF-1" value="ESCOLA" style="rounded=1;arcSize=10;whiteSpace=wrap;html=1;align=center;" vertex="1" parent="1">
          <mxGeometry x="50" y="110" width="100" height="40" as="geometry" />
        </mxCell>
        <mxCell id="C9hAEGVwSMoUTRmDxHIF-10" value="" style="edgeStyle=orthogonalEdgeStyle;rounded=0;orthogonalLoop=1;jettySize=auto;html=1;" edge="1" parent="1" source="C9hAEGVwSMoUTRmDxHIF-2" target="C9hAEGVwSMoUTRmDxHIF-4">
          <mxGeometry relative="1" as="geometry" />
        </mxCell>
        <mxCell id="C9hAEGVwSMoUTRmDxHIF-2" value="TURMAS" style="rounded=1;arcSize=10;whiteSpace=wrap;html=1;align=center;" vertex="1" parent="1">
          <mxGeometry x="340" y="110" width="100" height="40" as="geometry" />
        </mxCell>
        <mxCell id="C9hAEGVwSMoUTRmDxHIF-9" value="" style="edgeStyle=orthogonalEdgeStyle;rounded=0;orthogonalLoop=1;jettySize=auto;html=1;" edge="1" parent="1" source="C9hAEGVwSMoUTRmDxHIF-3" target="C9hAEGVwSMoUTRmDxHIF-2">
          <mxGeometry relative="1" as="geometry" />
        </mxCell>
        <mxCell id="C9hAEGVwSMoUTRmDxHIF-3" value="TEM" style="shape=rhombus;perimeter=rhombusPerimeter;whiteSpace=wrap;html=1;align=center;" vertex="1" parent="1">
          <mxGeometry x="210" y="100" width="80" height="60" as="geometry" />
        </mxCell>
        <mxCell id="C9hAEGVwSMoUTRmDxHIF-11" value="" style="edgeStyle=orthogonalEdgeStyle;rounded=0;orthogonalLoop=1;jettySize=auto;html=1;" edge="1" parent="1" source="C9hAEGVwSMoUTRmDxHIF-4" target="C9hAEGVwSMoUTRmDxHIF-5">
          <mxGeometry relative="1" as="geometry" />
        </mxCell>
        <mxCell id="C9hAEGVwSMoUTRmDxHIF-4" value="TEM" style="shape=rhombus;perimeter=rhombusPerimeter;whiteSpace=wrap;html=1;align=center;" vertex="1" parent="1">
          <mxGeometry x="520" y="100" width="100" height="60" as="geometry" />
        </mxCell>
        <mxCell id="C9hAEGVwSMoUTRmDxHIF-12" value="" style="edgeStyle=orthogonalEdgeStyle;rounded=0;orthogonalLoop=1;jettySize=auto;html=1;" edge="1" parent="1" source="C9hAEGVwSMoUTRmDxHIF-5" target="C9hAEGVwSMoUTRmDxHIF-7">
          <mxGeometry relative="1" as="geometry" />
        </mxCell>
        <mxCell id="C9hAEGVwSMoUTRmDxHIF-5" value="AULA" style="rounded=1;arcSize=10;whiteSpace=wrap;html=1;align=center;" vertex="1" parent="1">
          <mxGeometry x="680" y="110" width="100" height="40" as="geometry" />
        </mxCell>
        <mxCell id="C9hAEGVwSMoUTRmDxHIF-15" value="" style="edgeStyle=orthogonalEdgeStyle;rounded=0;orthogonalLoop=1;jettySize=auto;html=1;" edge="1" parent="1" source="C9hAEGVwSMoUTRmDxHIF-6" target="C9hAEGVwSMoUTRmDxHIF-14">
          <mxGeometry relative="1" as="geometry" />
        </mxCell>
        <mxCell id="C9hAEGVwSMoUTRmDxHIF-6" value="PROFESSOR" style="rounded=1;arcSize=10;whiteSpace=wrap;html=1;align=center;" vertex="1" parent="1">
          <mxGeometry x="690" y="320" width="100" height="40" as="geometry" />
        </mxCell>
        <mxCell id="C9hAEGVwSMoUTRmDxHIF-13" value="" style="edgeStyle=orthogonalEdgeStyle;rounded=0;orthogonalLoop=1;jettySize=auto;html=1;" edge="1" parent="1" source="C9hAEGVwSMoUTRmDxHIF-7" target="C9hAEGVwSMoUTRmDxHIF-6">
          <mxGeometry relative="1" as="geometry" />
        </mxCell>
        <mxCell id="C9hAEGVwSMoUTRmDxHIF-7" value="TEM" style="shape=rhombus;perimeter=rhombusPerimeter;whiteSpace=wrap;html=1;align=center;" vertex="1" parent="1">
          <mxGeometry x="680" y="200" width="90" height="60" as="geometry" />
        </mxCell>
        <mxCell id="C9hAEGVwSMoUTRmDxHIF-17" value="" style="edgeStyle=orthogonalEdgeStyle;rounded=0;orthogonalLoop=1;jettySize=auto;html=1;" edge="1" parent="1" source="C9hAEGVwSMoUTRmDxHIF-14" target="C9hAEGVwSMoUTRmDxHIF-16">
          <mxGeometry relative="1" as="geometry" />
        </mxCell>
        <mxCell id="C9hAEGVwSMoUTRmDxHIF-14" value="TEM" style="shape=rhombus;perimeter=rhombusPerimeter;whiteSpace=wrap;html=1;align=center;" vertex="1" parent="1">
          <mxGeometry x="500" y="310" width="100" height="60" as="geometry" />
        </mxCell>
        <mxCell id="C9hAEGVwSMoUTRmDxHIF-19" value="" style="edgeStyle=orthogonalEdgeStyle;rounded=0;orthogonalLoop=1;jettySize=auto;html=1;" edge="1" parent="1" source="C9hAEGVwSMoUTRmDxHIF-16" target="C9hAEGVwSMoUTRmDxHIF-18">
          <mxGeometry relative="1" as="geometry" />
        </mxCell>
        <mxCell id="C9hAEGVwSMoUTRmDxHIF-16" value="SALA" style="rounded=1;arcSize=10;whiteSpace=wrap;html=1;align=center;" vertex="1" parent="1">
          <mxGeometry x="340" y="300" width="100" height="40" as="geometry" />
        </mxCell>
        <mxCell id="C9hAEGVwSMoUTRmDxHIF-20" value="" style="edgeStyle=orthogonalEdgeStyle;rounded=0;orthogonalLoop=1;jettySize=auto;html=1;" edge="1" parent="1" source="C9hAEGVwSMoUTRmDxHIF-18" target="C9hAEGVwSMoUTRmDxHIF-2">
          <mxGeometry relative="1" as="geometry" />
        </mxCell>
        <mxCell id="C9hAEGVwSMoUTRmDxHIF-18" value="TEM" style="shape=rhombus;perimeter=rhombusPerimeter;whiteSpace=wrap;html=1;align=center;" vertex="1" parent="1">
          <mxGeometry x="345" y="190" width="90" height="60" as="geometry" />
        </mxCell>
      </root>
    </mxGraphModel>
  </diagram>
</mxfile>
